<mxfile host="app.diagrams.net" modified="2021-08-24T09:56:39.218Z" agent="5.0 (Windows NT 10.0; Win64; x64) AppleWebKit/537.36 (KHTML, like Gecko) Chrome/92.0.4515.159 Safari/537.36" etag="1UZ4lxufw_731pQ38LFh" version="14.9.8" type="github">
  <diagram id="pH6HQCZt80YhjG_G_fc8" name="Page-1">
    <mxGraphModel dx="1422" dy="794" grid="1" gridSize="10" guides="1" tooltips="1" connect="1" arrows="1" fold="1" page="1" pageScale="1" pageWidth="827" pageHeight="1169" math="0" shadow="0">
      <root>
        <mxCell id="0" />
        <mxCell id="1" parent="0" />
        <mxCell id="8lUbKgz4443Ifh4K2C8j-1" value="사용자" style="rounded=0;whiteSpace=wrap;html=1;" vertex="1" parent="1">
          <mxGeometry x="40" y="250" width="120" height="60" as="geometry" />
        </mxCell>
        <mxCell id="8lUbKgz4443Ifh4K2C8j-2" value="프론트엔드" style="ellipse;whiteSpace=wrap;html=1;" vertex="1" parent="1">
          <mxGeometry x="280" y="240" width="120" height="80" as="geometry" />
        </mxCell>
        <mxCell id="8lUbKgz4443Ifh4K2C8j-3" value="백엔드" style="ellipse;whiteSpace=wrap;html=1;" vertex="1" parent="1">
          <mxGeometry x="520" y="240" width="120" height="80" as="geometry" />
        </mxCell>
        <mxCell id="8lUbKgz4443Ifh4K2C8j-4" value="공격대상" style="rounded=0;whiteSpace=wrap;html=1;" vertex="1" parent="1">
          <mxGeometry x="760" y="250" width="120" height="60" as="geometry" />
        </mxCell>
        <mxCell id="8lUbKgz4443Ifh4K2C8j-6" value="사용자 입력 값" style="text;strokeColor=none;fillColor=none;align=left;verticalAlign=top;spacingLeft=4;spacingRight=4;overflow=hidden;rotatable=0;points=[[0,0.5],[1,0.5]];portConstraint=eastwest;fontSize=11;" vertex="1" parent="1">
          <mxGeometry x="180" y="246" width="90" height="30" as="geometry" />
        </mxCell>
        <mxCell id="8lUbKgz4443Ifh4K2C8j-7" value="" style="endArrow=classic;html=1;fontSize=11;entryX=0.017;entryY=0.375;entryDx=0;entryDy=0;entryPerimeter=0;" edge="1" parent="1" target="8lUbKgz4443Ifh4K2C8j-2">
          <mxGeometry width="50" height="50" relative="1" as="geometry">
            <mxPoint x="160" y="270" as="sourcePoint" />
            <mxPoint x="240" y="270" as="targetPoint" />
          </mxGeometry>
        </mxCell>
        <mxCell id="8lUbKgz4443Ifh4K2C8j-8" value="" style="endArrow=classic;html=1;fontSize=11;entryX=1;entryY=0.75;entryDx=0;entryDy=0;exitX=0.025;exitY=0.688;exitDx=0;exitDy=0;exitPerimeter=0;" edge="1" parent="1" source="8lUbKgz4443Ifh4K2C8j-2" target="8lUbKgz4443Ifh4K2C8j-1">
          <mxGeometry width="50" height="50" relative="1" as="geometry">
            <mxPoint x="290" y="300" as="sourcePoint" />
            <mxPoint x="200" y="300" as="targetPoint" />
          </mxGeometry>
        </mxCell>
        <mxCell id="8lUbKgz4443Ifh4K2C8j-9" value="수행결과" style="text;strokeColor=none;fillColor=none;align=left;verticalAlign=top;spacingLeft=4;spacingRight=4;overflow=hidden;rotatable=0;points=[[0,0.5],[1,0.5]];portConstraint=eastwest;fontSize=10;" vertex="1" parent="1">
          <mxGeometry x="195" y="294" width="60" height="26" as="geometry" />
        </mxCell>
        <mxCell id="8lUbKgz4443Ifh4K2C8j-11" value="" style="endArrow=classic;html=1;fontSize=10;" edge="1" parent="1">
          <mxGeometry width="50" height="50" relative="1" as="geometry">
            <mxPoint x="400" y="270" as="sourcePoint" />
            <mxPoint x="520" y="270" as="targetPoint" />
          </mxGeometry>
        </mxCell>
        <mxCell id="8lUbKgz4443Ifh4K2C8j-12" value="" style="endArrow=classic;html=1;fontSize=10;entryX=0.983;entryY=0.688;entryDx=0;entryDy=0;entryPerimeter=0;exitX=0.05;exitY=0.688;exitDx=0;exitDy=0;exitPerimeter=0;" edge="1" parent="1" source="8lUbKgz4443Ifh4K2C8j-3" target="8lUbKgz4443Ifh4K2C8j-2">
          <mxGeometry width="50" height="50" relative="1" as="geometry">
            <mxPoint x="520" y="295" as="sourcePoint" />
            <mxPoint x="420" y="294" as="targetPoint" />
            <Array as="points" />
          </mxGeometry>
        </mxCell>
        <mxCell id="8lUbKgz4443Ifh4K2C8j-13" value="입력 값 전달" style="text;strokeColor=none;fillColor=none;align=left;verticalAlign=top;spacingLeft=4;spacingRight=4;overflow=hidden;rotatable=0;points=[[0,0.5],[1,0.5]];portConstraint=eastwest;fontSize=10;" vertex="1" parent="1">
          <mxGeometry x="430" y="246" width="70" height="26" as="geometry" />
        </mxCell>
        <mxCell id="8lUbKgz4443Ifh4K2C8j-14" value="수행결과" style="text;strokeColor=none;fillColor=none;align=left;verticalAlign=top;spacingLeft=4;spacingRight=4;overflow=hidden;rotatable=0;points=[[0,0.5],[1,0.5]];portConstraint=eastwest;fontSize=10;" vertex="1" parent="1">
          <mxGeometry x="435" y="294" width="60" height="26" as="geometry" />
        </mxCell>
        <mxCell id="8lUbKgz4443Ifh4K2C8j-15" value="" style="endArrow=classic;html=1;fontSize=10;entryX=1;entryY=0.5;entryDx=0;entryDy=0;" edge="1" parent="1" target="8lUbKgz4443Ifh4K2C8j-3">
          <mxGeometry width="50" height="50" relative="1" as="geometry">
            <mxPoint x="760" y="279.5" as="sourcePoint" />
            <mxPoint x="660" y="279.5" as="targetPoint" />
          </mxGeometry>
        </mxCell>
        <mxCell id="8lUbKgz4443Ifh4K2C8j-16" value="데이터" style="text;strokeColor=none;fillColor=none;align=left;verticalAlign=top;spacingLeft=4;spacingRight=4;overflow=hidden;rotatable=0;points=[[0,0.5],[1,0.5]];portConstraint=eastwest;fontSize=10;" vertex="1" parent="1">
          <mxGeometry x="680" y="260" width="60" height="26" as="geometry" />
        </mxCell>
        <mxCell id="8lUbKgz4443Ifh4K2C8j-17" value="&lt;font style=&quot;font-size: 12px&quot;&gt;텔넷 소켓 통신&lt;/font&gt;" style="ellipse;whiteSpace=wrap;html=1;fontSize=10;" vertex="1" parent="1">
          <mxGeometry x="320" y="440" width="120" height="80" as="geometry" />
        </mxCell>
        <mxCell id="8lUbKgz4443Ifh4K2C8j-18" value="&lt;font style=&quot;font-size: 12px&quot;&gt;명령어 전달&lt;/font&gt;" style="ellipse;whiteSpace=wrap;html=1;fontSize=10;" vertex="1" parent="1">
          <mxGeometry x="320" y="560" width="120" height="80" as="geometry" />
        </mxCell>
        <mxCell id="8lUbKgz4443Ifh4K2C8j-20" value="" style="endArrow=classic;html=1;fontSize=10;entryX=0;entryY=0.5;entryDx=0;entryDy=0;" edge="1" parent="1" target="8lUbKgz4443Ifh4K2C8j-17">
          <mxGeometry width="50" height="50" relative="1" as="geometry">
            <mxPoint x="240" y="540" as="sourcePoint" />
            <mxPoint x="280" y="480" as="targetPoint" />
            <Array as="points">
              <mxPoint x="280" y="480" />
            </Array>
          </mxGeometry>
        </mxCell>
        <mxCell id="8lUbKgz4443Ifh4K2C8j-21" value="" style="endArrow=classic;html=1;fontSize=10;entryX=0;entryY=0.5;entryDx=0;entryDy=0;" edge="1" parent="1" target="8lUbKgz4443Ifh4K2C8j-18">
          <mxGeometry width="50" height="50" relative="1" as="geometry">
            <mxPoint x="240" y="540" as="sourcePoint" />
            <mxPoint x="280" y="600" as="targetPoint" />
            <Array as="points">
              <mxPoint x="280" y="600" />
            </Array>
          </mxGeometry>
        </mxCell>
        <mxCell id="8lUbKgz4443Ifh4K2C8j-22" value="" style="endArrow=none;html=1;fontSize=10;" edge="1" parent="1">
          <mxGeometry width="50" height="50" relative="1" as="geometry">
            <mxPoint x="120" y="540" as="sourcePoint" />
            <mxPoint x="240" y="540" as="targetPoint" />
            <Array as="points">
              <mxPoint x="190" y="540" />
            </Array>
          </mxGeometry>
        </mxCell>
        <mxCell id="8lUbKgz4443Ifh4K2C8j-23" value="사용자 입력 값" style="text;strokeColor=none;fillColor=none;align=left;verticalAlign=top;spacingLeft=4;spacingRight=4;overflow=hidden;rotatable=0;points=[[0,0.5],[1,0.5]];portConstraint=eastwest;fontSize=10;" vertex="1" parent="1">
          <mxGeometry x="142.5" y="510" width="80" height="26" as="geometry" />
        </mxCell>
        <mxCell id="8lUbKgz4443Ifh4K2C8j-24" value="소켓" style="text;strokeColor=none;fillColor=none;align=left;verticalAlign=top;spacingLeft=4;spacingRight=4;overflow=hidden;rotatable=0;points=[[0,0.5],[1,0.5]];portConstraint=eastwest;fontSize=10;" vertex="1" parent="1">
          <mxGeometry x="240" y="480" width="60" height="26" as="geometry" />
        </mxCell>
        <mxCell id="8lUbKgz4443Ifh4K2C8j-26" value="명령어" style="text;strokeColor=none;fillColor=none;align=left;verticalAlign=top;spacingLeft=4;spacingRight=4;overflow=hidden;rotatable=0;points=[[0,0.5],[1,0.5]];portConstraint=eastwest;fontSize=10;" vertex="1" parent="1">
          <mxGeometry x="230" y="572" width="60" height="26" as="geometry" />
        </mxCell>
        <mxCell id="8lUbKgz4443Ifh4K2C8j-27" value="" style="endArrow=classic;html=1;fontSize=10;" edge="1" parent="1">
          <mxGeometry width="50" height="50" relative="1" as="geometry">
            <mxPoint x="440" y="480" as="sourcePoint" />
            <mxPoint x="520" y="480" as="targetPoint" />
          </mxGeometry>
        </mxCell>
        <mxCell id="8lUbKgz4443Ifh4K2C8j-28" value="" style="endArrow=classic;html=1;fontSize=10;" edge="1" parent="1">
          <mxGeometry width="50" height="50" relative="1" as="geometry">
            <mxPoint x="440" y="599.5" as="sourcePoint" />
            <mxPoint x="520" y="599.5" as="targetPoint" />
          </mxGeometry>
        </mxCell>
        <mxCell id="8lUbKgz4443Ifh4K2C8j-29" value="연결시도" style="text;strokeColor=none;fillColor=none;align=left;verticalAlign=top;spacingLeft=4;spacingRight=4;overflow=hidden;rotatable=0;points=[[0,0.5],[1,0.5]];portConstraint=eastwest;fontSize=10;" vertex="1" parent="1">
          <mxGeometry x="450" y="454" width="60" height="26" as="geometry" />
        </mxCell>
        <mxCell id="8lUbKgz4443Ifh4K2C8j-30" value="명령어 전달" style="text;strokeColor=none;fillColor=none;align=left;verticalAlign=top;spacingLeft=4;spacingRight=4;overflow=hidden;rotatable=0;points=[[0,0.5],[1,0.5]];portConstraint=eastwest;fontSize=10;" vertex="1" parent="1">
          <mxGeometry x="450" y="572" width="70" height="26" as="geometry" />
        </mxCell>
        <mxCell id="8lUbKgz4443Ifh4K2C8j-32" value="&lt;span style=&quot;font-size: 30px&quot;&gt;전체 부분&lt;/span&gt;" style="text;html=1;strokeColor=none;fillColor=none;align=center;verticalAlign=middle;whiteSpace=wrap;rounded=0;fontSize=10;" vertex="1" parent="1">
          <mxGeometry x="40" y="140" width="305" height="80" as="geometry" />
        </mxCell>
        <mxCell id="8lUbKgz4443Ifh4K2C8j-33" value="&lt;span style=&quot;font-size: 30px&quot;&gt;프론트엔드 부분&lt;/span&gt;" style="text;html=1;strokeColor=none;fillColor=none;align=center;verticalAlign=middle;whiteSpace=wrap;rounded=0;fontSize=10;" vertex="1" parent="1">
          <mxGeometry x="40" y="360" width="305" height="80" as="geometry" />
        </mxCell>
        <mxCell id="8lUbKgz4443Ifh4K2C8j-34" value="&lt;span style=&quot;font-size: 30px&quot;&gt;백엔드 부분&lt;/span&gt;" style="text;html=1;strokeColor=none;fillColor=none;align=center;verticalAlign=middle;whiteSpace=wrap;rounded=0;fontSize=10;" vertex="1" parent="1">
          <mxGeometry x="480" y="680" width="240" height="80" as="geometry" />
        </mxCell>
        <mxCell id="8lUbKgz4443Ifh4K2C8j-35" value="&lt;span style=&quot;font-size: 12px&quot;&gt;텔넷 소켓 통신&lt;/span&gt;" style="ellipse;whiteSpace=wrap;html=1;fontSize=10;" vertex="1" parent="1">
          <mxGeometry x="320" y="720" width="120" height="80" as="geometry" />
        </mxCell>
        <mxCell id="8lUbKgz4443Ifh4K2C8j-36" value="&lt;font style=&quot;font-size: 12px&quot;&gt;명령수행&lt;/font&gt;" style="ellipse;whiteSpace=wrap;html=1;fontSize=10;" vertex="1" parent="1">
          <mxGeometry x="320" y="840" width="120" height="80" as="geometry" />
        </mxCell>
        <mxCell id="8lUbKgz4443Ifh4K2C8j-37" value="" style="endArrow=classic;html=1;fontSize=10;" edge="1" parent="1">
          <mxGeometry width="50" height="50" relative="1" as="geometry">
            <mxPoint x="240" y="820" as="sourcePoint" />
            <mxPoint x="320" y="760" as="targetPoint" />
            <Array as="points">
              <mxPoint x="280" y="760" />
            </Array>
          </mxGeometry>
        </mxCell>
        <mxCell id="8lUbKgz4443Ifh4K2C8j-38" value="" style="endArrow=classic;html=1;fontSize=10;" edge="1" parent="1">
          <mxGeometry width="50" height="50" relative="1" as="geometry">
            <mxPoint x="240" y="820" as="sourcePoint" />
            <mxPoint x="320" y="880" as="targetPoint" />
            <Array as="points">
              <mxPoint x="280" y="880" />
            </Array>
          </mxGeometry>
        </mxCell>
        <mxCell id="8lUbKgz4443Ifh4K2C8j-39" value="" style="endArrow=none;html=1;fontSize=10;" edge="1" parent="1">
          <mxGeometry width="50" height="50" relative="1" as="geometry">
            <mxPoint x="120" y="820" as="sourcePoint" />
            <mxPoint x="240" y="820" as="targetPoint" />
          </mxGeometry>
        </mxCell>
        <mxCell id="8lUbKgz4443Ifh4K2C8j-40" value="연결시도" style="text;strokeColor=none;fillColor=none;align=left;verticalAlign=top;spacingLeft=4;spacingRight=4;overflow=hidden;rotatable=0;points=[[0,0.5],[1,0.5]];portConstraint=eastwest;fontSize=10;" vertex="1" parent="1">
          <mxGeometry x="220" y="760" width="60" height="26" as="geometry" />
        </mxCell>
        <mxCell id="8lUbKgz4443Ifh4K2C8j-41" value="명령어" style="text;strokeColor=none;fillColor=none;align=left;verticalAlign=top;spacingLeft=4;spacingRight=4;overflow=hidden;rotatable=0;points=[[0,0.5],[1,0.5]];portConstraint=eastwest;fontSize=10;" vertex="1" parent="1">
          <mxGeometry x="220" y="840" width="60" height="26" as="geometry" />
        </mxCell>
        <mxCell id="8lUbKgz4443Ifh4K2C8j-44" value="" style="endArrow=classic;html=1;fontSize=10;" edge="1" parent="1">
          <mxGeometry width="50" height="50" relative="1" as="geometry">
            <mxPoint x="379.5" y="720" as="sourcePoint" />
            <mxPoint x="240" y="681" as="targetPoint" />
            <Array as="points">
              <mxPoint x="380" y="680" />
            </Array>
          </mxGeometry>
        </mxCell>
        <mxCell id="8lUbKgz4443Ifh4K2C8j-45" value="" style="endArrow=classic;html=1;fontSize=10;" edge="1" parent="1">
          <mxGeometry width="50" height="50" relative="1" as="geometry">
            <mxPoint x="380" y="920" as="sourcePoint" />
            <mxPoint x="240" y="960" as="targetPoint" />
            <Array as="points">
              <mxPoint x="380" y="960" />
            </Array>
          </mxGeometry>
        </mxCell>
        <mxCell id="8lUbKgz4443Ifh4K2C8j-46" value="연결" style="text;strokeColor=none;fillColor=none;align=left;verticalAlign=top;spacingLeft=4;spacingRight=4;overflow=hidden;rotatable=0;points=[[0,0.5],[1,0.5]];portConstraint=eastwest;fontSize=10;" vertex="1" parent="1">
          <mxGeometry x="305" y="678" width="60" height="26" as="geometry" />
        </mxCell>
        <mxCell id="8lUbKgz4443Ifh4K2C8j-47" value="수행결과" style="text;strokeColor=none;fillColor=none;align=left;verticalAlign=top;spacingLeft=4;spacingRight=4;overflow=hidden;rotatable=0;points=[[0,0.5],[1,0.5]];portConstraint=eastwest;fontSize=10;" vertex="1" parent="1">
          <mxGeometry x="300" y="940" width="60" height="26" as="geometry" />
        </mxCell>
        <mxCell id="8lUbKgz4443Ifh4K2C8j-48" value="&lt;font style=&quot;font-size: 12px&quot;&gt;공격 대상&lt;/font&gt;" style="rounded=0;whiteSpace=wrap;html=1;fontSize=10;" vertex="1" parent="1">
          <mxGeometry x="520" y="850" width="120" height="60" as="geometry" />
        </mxCell>
        <mxCell id="8lUbKgz4443Ifh4K2C8j-56" value="데이터" style="text;strokeColor=none;fillColor=none;align=left;verticalAlign=top;spacingLeft=4;spacingRight=4;overflow=hidden;rotatable=0;points=[[0,0.5],[1,0.5]];portConstraint=eastwest;fontSize=10;" vertex="1" parent="1">
          <mxGeometry x="455" y="860" width="60" height="26" as="geometry" />
        </mxCell>
        <mxCell id="8lUbKgz4443Ifh4K2C8j-57" value="" style="endArrow=classic;html=1;fontSize=10;" edge="1" parent="1">
          <mxGeometry width="50" height="50" relative="1" as="geometry">
            <mxPoint x="520" y="879.5" as="sourcePoint" />
            <mxPoint x="440" y="880" as="targetPoint" />
          </mxGeometry>
        </mxCell>
        <mxCell id="8lUbKgz4443Ifh4K2C8j-58" value="&lt;span style=&quot;font-size: 30px&quot;&gt;명령수행&lt;/span&gt;" style="text;html=1;strokeColor=none;fillColor=none;align=center;verticalAlign=middle;whiteSpace=wrap;rounded=0;fontSize=10;" vertex="1" parent="1">
          <mxGeometry x="790" y="1050" width="347.5" height="100" as="geometry" />
        </mxCell>
        <mxCell id="8lUbKgz4443Ifh4K2C8j-59" value="&lt;font style=&quot;font-size: 12px&quot;&gt;스크린샷&lt;/font&gt;" style="ellipse;whiteSpace=wrap;html=1;fontSize=10;" vertex="1" parent="1">
          <mxGeometry x="280" y="1200" width="120" height="80" as="geometry" />
        </mxCell>
        <mxCell id="8lUbKgz4443Ifh4K2C8j-60" value="&lt;font style=&quot;font-size: 12px&quot;&gt;키로거&lt;/font&gt;" style="ellipse;whiteSpace=wrap;html=1;fontSize=10;" vertex="1" parent="1">
          <mxGeometry x="280" y="1080" width="120" height="80" as="geometry" />
        </mxCell>
        <mxCell id="8lUbKgz4443Ifh4K2C8j-61" value="&lt;font style=&quot;font-size: 12px&quot;&gt;파일&lt;/font&gt;" style="ellipse;whiteSpace=wrap;html=1;fontSize=10;" vertex="1" parent="1">
          <mxGeometry x="280" y="1320" width="120" height="80" as="geometry" />
        </mxCell>
        <mxCell id="8lUbKgz4443Ifh4K2C8j-62" value="" style="endArrow=classic;html=1;fontSize=10;" edge="1" parent="1">
          <mxGeometry width="50" height="50" relative="1" as="geometry">
            <mxPoint x="200" y="1239.5" as="sourcePoint" />
            <mxPoint x="280" y="1239.5" as="targetPoint" />
          </mxGeometry>
        </mxCell>
        <mxCell id="8lUbKgz4443Ifh4K2C8j-63" value="" style="endArrow=classic;html=1;fontSize=10;" edge="1" parent="1">
          <mxGeometry width="50" height="50" relative="1" as="geometry">
            <mxPoint x="200" y="1240" as="sourcePoint" />
            <mxPoint x="280" y="1119" as="targetPoint" />
            <Array as="points">
              <mxPoint x="240" y="1119" />
            </Array>
          </mxGeometry>
        </mxCell>
        <mxCell id="8lUbKgz4443Ifh4K2C8j-64" value="" style="endArrow=classic;html=1;fontSize=10;" edge="1" parent="1">
          <mxGeometry width="50" height="50" relative="1" as="geometry">
            <mxPoint x="200" y="1240" as="sourcePoint" />
            <mxPoint x="280" y="1359.5" as="targetPoint" />
            <Array as="points">
              <mxPoint x="240" y="1360" />
            </Array>
          </mxGeometry>
        </mxCell>
        <mxCell id="8lUbKgz4443Ifh4K2C8j-65" value="" style="endArrow=none;html=1;fontSize=10;" edge="1" parent="1">
          <mxGeometry width="50" height="50" relative="1" as="geometry">
            <mxPoint x="80" y="1240" as="sourcePoint" />
            <mxPoint x="200" y="1239.5" as="targetPoint" />
          </mxGeometry>
        </mxCell>
        <mxCell id="8lUbKgz4443Ifh4K2C8j-66" value="&lt;font style=&quot;font-size: 12px&quot;&gt;공격 대상&lt;/font&gt;" style="rounded=0;whiteSpace=wrap;html=1;fontSize=10;" vertex="1" parent="1">
          <mxGeometry x="480" y="1210" width="120" height="60" as="geometry" />
        </mxCell>
        <mxCell id="8lUbKgz4443Ifh4K2C8j-68" value="&lt;font style=&quot;font-size: 12px&quot;&gt;keylogger.txt&lt;/font&gt;" style="shape=partialRectangle;whiteSpace=wrap;html=1;left=0;right=0;fillColor=none;fontSize=10;strokeColor=#000000;" vertex="1" parent="1">
          <mxGeometry x="720" y="1210" width="120" height="60" as="geometry" />
        </mxCell>
        <mxCell id="8lUbKgz4443Ifh4K2C8j-73" value="" style="endArrow=classic;html=1;fontSize=10;entryX=0;entryY=0.5;entryDx=0;entryDy=0;" edge="1" parent="1" target="8lUbKgz4443Ifh4K2C8j-68">
          <mxGeometry width="50" height="50" relative="1" as="geometry">
            <mxPoint x="600" y="1240" as="sourcePoint" />
            <mxPoint x="650" y="1190" as="targetPoint" />
          </mxGeometry>
        </mxCell>
        <mxCell id="8lUbKgz4443Ifh4K2C8j-75" value="" style="endArrow=classic;html=1;fontSize=10;entryX=1;entryY=0;entryDx=0;entryDy=0;exitX=0.5;exitY=0;exitDx=0;exitDy=0;" edge="1" parent="1" source="8lUbKgz4443Ifh4K2C8j-68" target="8lUbKgz4443Ifh4K2C8j-60">
          <mxGeometry width="50" height="50" relative="1" as="geometry">
            <mxPoint x="740" y="1210" as="sourcePoint" />
            <mxPoint x="740" y="1120" as="targetPoint" />
            <Array as="points">
              <mxPoint x="780" y="1092" />
            </Array>
          </mxGeometry>
        </mxCell>
        <mxCell id="8lUbKgz4443Ifh4K2C8j-77" value="" style="endArrow=classic;html=1;fontSize=10;entryX=0.5;entryY=0;entryDx=0;entryDy=0;" edge="1" parent="1" target="8lUbKgz4443Ifh4K2C8j-66">
          <mxGeometry width="50" height="50" relative="1" as="geometry">
            <mxPoint x="400" y="1120" as="sourcePoint" />
            <mxPoint x="540" y="1120" as="targetPoint" />
            <Array as="points">
              <mxPoint x="540" y="1120" />
            </Array>
          </mxGeometry>
        </mxCell>
        <mxCell id="8lUbKgz4443Ifh4K2C8j-78" value="" style="endArrow=classic;html=1;fontSize=10;entryX=0.75;entryY=1;entryDx=0;entryDy=0;" edge="1" parent="1" target="8lUbKgz4443Ifh4K2C8j-66">
          <mxGeometry width="50" height="50" relative="1" as="geometry">
            <mxPoint x="400" y="1360" as="sourcePoint" />
            <mxPoint x="450" y="1310" as="targetPoint" />
            <Array as="points">
              <mxPoint x="570" y="1360" />
            </Array>
          </mxGeometry>
        </mxCell>
        <mxCell id="8lUbKgz4443Ifh4K2C8j-79" value="" style="endArrow=classic;html=1;fontSize=10;" edge="1" parent="1">
          <mxGeometry width="50" height="50" relative="1" as="geometry">
            <mxPoint x="520" y="1270" as="sourcePoint" />
            <mxPoint x="380" y="1330" as="targetPoint" />
            <Array as="points">
              <mxPoint x="520" y="1330" />
            </Array>
          </mxGeometry>
        </mxCell>
        <mxCell id="8lUbKgz4443Ifh4K2C8j-80" value="" style="endArrow=classic;html=1;fontSize=10;entryX=0;entryY=0.25;entryDx=0;entryDy=0;exitX=0.975;exitY=0.313;exitDx=0;exitDy=0;exitPerimeter=0;" edge="1" parent="1" source="8lUbKgz4443Ifh4K2C8j-59" target="8lUbKgz4443Ifh4K2C8j-66">
          <mxGeometry width="50" height="50" relative="1" as="geometry">
            <mxPoint x="400" y="1225" as="sourcePoint" />
            <mxPoint x="440" y="1169" as="targetPoint" />
          </mxGeometry>
        </mxCell>
        <mxCell id="8lUbKgz4443Ifh4K2C8j-81" value="" style="endArrow=classic;html=1;fontSize=10;" edge="1" parent="1">
          <mxGeometry width="50" height="50" relative="1" as="geometry">
            <mxPoint x="480" y="1250" as="sourcePoint" />
            <mxPoint x="399" y="1250" as="targetPoint" />
          </mxGeometry>
        </mxCell>
        <mxCell id="8lUbKgz4443Ifh4K2C8j-82" value="키로거 명령어" style="text;strokeColor=none;fillColor=none;align=left;verticalAlign=top;spacingLeft=4;spacingRight=4;overflow=hidden;rotatable=0;points=[[0,0.5],[1,0.5]];portConstraint=eastwest;fontSize=10;" vertex="1" parent="1">
          <mxGeometry x="155" y="1134" width="75" height="26" as="geometry" />
        </mxCell>
        <mxCell id="8lUbKgz4443Ifh4K2C8j-83" value="스크린샷 명령어" style="text;strokeColor=none;fillColor=none;align=left;verticalAlign=top;spacingLeft=4;spacingRight=4;overflow=hidden;rotatable=0;points=[[0,0.5],[1,0.5]];portConstraint=eastwest;fontSize=10;" vertex="1" parent="1">
          <mxGeometry x="200" y="1220" width="90" height="26" as="geometry" />
        </mxCell>
        <mxCell id="8lUbKgz4443Ifh4K2C8j-84" value="파일 명령어" style="text;strokeColor=none;fillColor=none;align=left;verticalAlign=top;spacingLeft=4;spacingRight=4;overflow=hidden;rotatable=0;points=[[0,0.5],[1,0.5]];portConstraint=eastwest;fontSize=10;" vertex="1" parent="1">
          <mxGeometry x="170" y="1320" width="70" height="26" as="geometry" />
        </mxCell>
        <mxCell id="8lUbKgz4443Ifh4K2C8j-85" value="키보드 이벤트 수집" style="text;strokeColor=none;fillColor=none;align=left;verticalAlign=top;spacingLeft=4;spacingRight=4;overflow=hidden;rotatable=0;points=[[0,0.5],[1,0.5]];portConstraint=eastwest;fontSize=10;" vertex="1" parent="1">
          <mxGeometry x="610" y="1220" width="100" height="26" as="geometry" />
        </mxCell>
        <mxCell id="8lUbKgz4443Ifh4K2C8j-89" value="Screenshot.bmp" style="text;strokeColor=none;fillColor=none;align=left;verticalAlign=top;spacingLeft=4;spacingRight=4;overflow=hidden;rotatable=0;points=[[0,0.5],[1,0.5]];portConstraint=eastwest;fontSize=10;" vertex="1" parent="1">
          <mxGeometry x="400" y="1244" width="90" height="26" as="geometry" />
        </mxCell>
        <mxCell id="8lUbKgz4443Ifh4K2C8j-90" value="파일" style="text;strokeColor=none;fillColor=none;align=left;verticalAlign=top;spacingLeft=4;spacingRight=4;overflow=hidden;rotatable=0;points=[[0,0.5],[1,0.5]];portConstraint=eastwest;fontSize=10;" vertex="1" parent="1">
          <mxGeometry x="440" y="1310" width="60" height="26" as="geometry" />
        </mxCell>
        <mxCell id="8lUbKgz4443Ifh4K2C8j-91" value="&lt;font style=&quot;font-size: 30px&quot;&gt;텔넷 소켓 통신&lt;/font&gt;" style="text;html=1;strokeColor=none;fillColor=none;align=center;verticalAlign=middle;whiteSpace=wrap;rounded=0;fontSize=10;" vertex="1" parent="1">
          <mxGeometry x="40" y="1440" width="295" height="120" as="geometry" />
        </mxCell>
      </root>
    </mxGraphModel>
  </diagram>
</mxfile>
